<?xml version="1.0" encoding="UTF-8"?>
<svg width="180.48499999999999mm" height="131.05869999999999mm" viewBox="0 0 180.48499999999999 131.05869999999999"
     xmlns="http://www.w3.org/2000/svg" version="1.1">
  <title>RPWK21 Numpad LED Layout - Bottom View (mirrored)</title>
  <rect width="80.48499999999999" height="131.05869999999999" fill="#f5f5f5"/>
  <rect x="2" y="2" width="76.48499999999999" height="107.05869999999999" fill="none" stroke="#009933" stroke-width="0.5"/>

  <g id="legend" transform="translate(110, 10)">
    <circle cx="2" cy="2" r="2" fill="#00cc00" opacity="0.7"/>
    <text x="6" y="4" font-family="Arial" font-size="3" fill="#333">Per-key LED</text>
    <rect x="0" y="6" width="4" height="4" fill="#ff3333" opacity="0.7"/>
    <text x="6" y="9.5" font-family="Arial" font-size="3" fill="#333">Underglow LED</text>
    <circle cx="2" cy="13" r="2" fill="#3366ff" opacity="0.7"/>
    <text x="6" y="15" font-family="Arial" font-size="3" fill="#333">Status LED</text>
    <rect x="0" y="17" width="4" height="4" fill="none" stroke="#999999" stroke-width="0.3"/>
    <text x="6" y="20.5" font-family="Arial" font-size="3" fill="#333">Key outline</text>
  </g>

  <text x="40.24249999999999" y="118.05869999999999" font-family="Arial" font-size="3" text-anchor="middle" fill="#666">
    Bottom View (mirrored) | LED Chain: 0→33 | 21 keys + 12 underglow + 1 status
  </text>

  <!-- Key outlines (mirrored) -->
  <g id="key-outlines">
    <rect x="2.62" y="33.57" width="19.05" height="38.10" fill="none" stroke="#999999" stroke-width="0.3" opacity="0.5"/>
    <text x="12.14" y="52.62" font-family="Arial" font-size="2.5" text-anchor="middle" fill="#666">Plus</text>
    <rect x="2.62" y="71.67" width="19.05" height="38.10" fill="none" stroke="#999999" stroke-width="0.3" opacity="0.5"/>
    <text x="12.14" y="90.72" font-family="Arial" font-size="2.5" text-anchor="middle" fill="#666">Enter</text>
    <rect x="21.67" y="90.72" width="19.05" height="19.05" fill="none" stroke="#999999" stroke-width="0.3" opacity="0.5"/>
    <text x="31.19" y="100.25" font-family="Arial" font-size="2.5" text-anchor="middle" fill="#666">Dot</text>
    <rect x="21.67" y="71.68" width="19.05" height="19.05" fill="none" stroke="#999999" stroke-width="0.3" opacity="0.5"/>
    <text x="31.19" y="81.20" font-family="Arial" font-size="2.5" text-anchor="middle" fill="#666">3</text>
    <rect x="40.72" y="71.68" width="19.05" height="19.05" fill="none" stroke="#999999" stroke-width="0.3" opacity="0.5"/>
    <text x="50.24" y="81.20" font-family="Arial" font-size="2.5" text-anchor="middle" fill="#666">2</text>
    <rect x="40.72" y="90.72" width="38.10" height="19.05" fill="none" stroke="#999999" stroke-width="0.3" opacity="0.5"/>
    <text x="59.77" y="100.25" font-family="Arial" font-size="2.5" text-anchor="middle" fill="#666">0</text>
    <rect x="59.77" y="71.68" width="19.05" height="19.05" fill="none" stroke="#999999" stroke-width="0.3" opacity="0.5"/>
    <text x="69.29" y="81.20" font-family="Arial" font-size="2.5" text-anchor="middle" fill="#666">1</text>
    <rect x="21.67" y="52.63" width="19.05" height="19.05" fill="none" stroke="#999999" stroke-width="0.3" opacity="0.5"/>
    <text x="31.19" y="62.15" font-family="Arial" font-size="2.5" text-anchor="middle" fill="#666">6</text>
    <rect x="40.72" y="52.63" width="19.05" height="19.05" fill="none" stroke="#999999" stroke-width="0.3" opacity="0.5"/>
    <text x="50.24" y="62.15" font-family="Arial" font-size="2.5" text-anchor="middle" fill="#666">5</text>
    <rect x="59.77" y="52.63" width="19.05" height="19.05" fill="none" stroke="#999999" stroke-width="0.3" opacity="0.5"/>
    <text x="69.29" y="62.15" font-family="Arial" font-size="2.5" text-anchor="middle" fill="#666">4</text>
    <rect x="21.67" y="33.57" width="19.05" height="19.05" fill="none" stroke="#999999" stroke-width="0.3" opacity="0.5"/>
    <text x="31.19" y="43.10" font-family="Arial" font-size="2.5" text-anchor="middle" fill="#666">9</text>
    <rect x="40.72" y="33.57" width="19.05" height="19.05" fill="none" stroke="#999999" stroke-width="0.3" opacity="0.5"/>
    <text x="50.24" y="43.10" font-family="Arial" font-size="2.5" text-anchor="middle" fill="#666">8</text>
    <rect x="59.77" y="33.57" width="19.05" height="19.05" fill="none" stroke="#999999" stroke-width="0.3" opacity="0.5"/>
    <text x="69.29" y="43.10" font-family="Arial" font-size="2.5" text-anchor="middle" fill="#666">7</text>
    <rect x="59.77" y="-9.29" width="19.05" height="19.05" fill="none" stroke="#999999" stroke-width="0.3" opacity="0.5"/>
    <text x="69.29" y="0.24" font-family="Arial" font-size="2.5" text-anchor="middle" fill="#666">M1</text>
    <rect x="59.77" y="14.56" width="19.05" height="19.05" fill="none" stroke="#999999" stroke-width="0.3" opacity="0.5"/>
    <text x="69.29" y="24.08" font-family="Arial" font-size="2.5" text-anchor="middle" fill="#666">NumLock</text>
    <rect x="2.62" y="-9.29" width="19.05" height="19.05" fill="none" stroke="#999999" stroke-width="0.3" opacity="0.5"/>
    <text x="12.14" y="0.24" font-family="Arial" font-size="2.5" text-anchor="middle" fill="#666">M1</text>
    <rect x="2.62" y="14.52" width="19.05" height="19.05" fill="none" stroke="#999999" stroke-width="0.3" opacity="0.5"/>
    <text x="12.14" y="24.05" font-family="Arial" font-size="2.5" text-anchor="middle" fill="#666">Minus</text>
    <rect x="21.67" y="14.52" width="19.05" height="19.05" fill="none" stroke="#999999" stroke-width="0.3" opacity="0.5"/>
    <text x="31.19" y="24.05" font-family="Arial" font-size="2.5" text-anchor="middle" fill="#666">Asterisk</text>
    <rect x="40.72" y="14.52" width="19.05" height="19.05" fill="none" stroke="#999999" stroke-width="0.3" opacity="0.5"/>
    <text x="50.24" y="24.05" font-family="Arial" font-size="2.5" text-anchor="middle" fill="#666">Slash</text>
    <rect x="40.72" y="-9.29" width="19.05" height="19.05" fill="none" stroke="#999999" stroke-width="0.3" opacity="0.5"/>
    <text x="50.24" y="0.24" font-family="Arial" font-size="2.5" text-anchor="middle" fill="#666">M2</text>
    <rect x="21.67" y="-9.29" width="19.05" height="19.05" fill="none" stroke="#999999" stroke-width="0.3" opacity="0.5"/>
    <text x="31.19" y="0.24" font-family="Arial" font-size="2.5" text-anchor="middle" fill="#666">M3</text>
  </g>

  <!-- LEDs (mirrored) -->
  <g id="leds">
    <circle cx="7.38" cy="52.63" r="2" fill="#00cc00" opacity="0.7"/>
    <text x="7.38" y="49.63" font-family="monospace" font-size="2.5" text-anchor="middle" fill="#000">0</text>
    <circle cx="7.38" cy="90.72" r="2" fill="#00cc00" opacity="0.7"/>
    <text x="7.38" y="87.72" font-family="monospace" font-size="2.5" text-anchor="middle" fill="#000">1</text>
    <circle cx="31.19" cy="105.01" r="2" fill="#00cc00" opacity="0.7"/>
    <text x="31.19" y="102.01" font-family="monospace" font-size="2.5" text-anchor="middle" fill="#000">2</text>
    <circle cx="31.19" cy="85.96" r="2" fill="#00cc00" opacity="0.7"/>
    <text x="31.19" y="82.96" font-family="monospace" font-size="2.5" text-anchor="middle" fill="#000">3</text>
    <circle cx="50.24" cy="85.96" r="2" fill="#00cc00" opacity="0.7"/>
    <text x="50.24" y="82.96" font-family="monospace" font-size="2.5" text-anchor="middle" fill="#000">4</text>
    <circle cx="59.77" cy="105.01" r="2" fill="#00cc00" opacity="0.7"/>
    <text x="59.77" y="102.01" font-family="monospace" font-size="2.5" text-anchor="middle" fill="#000">5</text>
    <circle cx="69.29" cy="85.96" r="2" fill="#00cc00" opacity="0.7"/>
    <text x="69.29" y="82.96" font-family="monospace" font-size="2.5" text-anchor="middle" fill="#000">6</text>
    <circle cx="31.19" cy="66.91" r="2" fill="#00cc00" opacity="0.7"/>
    <text x="69.29" y="63.91" font-family="monospace" font-size="2.5" text-anchor="middle" fill="#000">7</text>
    <circle cx="50.24" cy="66.91" r="2" fill="#00cc00" opacity="0.7"/>
    <text x="50.24" y="63.91" font-family="monospace" font-size="2.5" text-anchor="middle" fill="#000">8</text>
    <circle cx="69.29" cy="66.91" r="2" fill="#00cc00" opacity="0.7"/>
      <text x="31.19" y="63.91" font-family="monospace" font-size="2.5" text-anchor="middle" fill="#000">9</text>
      <circle cx="31.19" cy="47.86" r="2" fill="#00cc00" opacity="0.7"/>
    <text x="31.19" y="44.86" font-family="monospace" font-size="2.5" text-anchor="middle" fill="#000">10</text>
    <circle cx="50.24" cy="47.86" r="2" fill="#00cc00" opacity="0.7"/>
    <text x="50.24" y="44.86" font-family="monospace" font-size="2.5" text-anchor="middle" fill="#000">11</text>
    <circle cx="69.29" cy="47.86" r="2" fill="#00cc00" opacity="0.7"/>
    <text x="69.29" y="44.86" font-family="monospace" font-size="2.5" text-anchor="middle" fill="#000">12</text>
    <circle cx="69.29" cy="5.00" r="2" fill="#00cc00" opacity="0.7"/>
    <text x="72.99" y="25.85" font-family="monospace" font-size="2.5" text-anchor="middle" fill="#000">13</text>
    <circle cx="72.99" cy="28.85" r="2" fill="#00cc00" opacity="0.7"/>
    <text x="50.24" y="25.81" font-family="monospace" font-size="2.5" text-anchor="middle" fill="#000">14</text>
    <circle cx="12.14" cy="5.00" r="2" fill="#00cc00" opacity="0.7"/>
    <text x="31.19" y="25.81" font-family="monospace" font-size="2.5" text-anchor="middle" fill="#000">15</text>
    <circle cx="12.14" cy="28.81" r="2" fill="#00cc00" opacity="0.7"/>
    <text x="12.14" y="25.81" font-family="monospace" font-size="2.5" text-anchor="middle" fill="#000">16</text>
    <circle cx="31.19" cy="28.81" r="2" fill="#00cc00" opacity="0.7"/>
    <text x="12.14" y="2.00" font-family="monospace" font-size="2.5" text-anchor="middle" fill="#000">17</text>
    <circle cx="50.24" cy="28.81" r="2" fill="#00cc00" opacity="0.7"/>
    <text x="31.19" y="2.00" font-family="monospace" font-size="2.5" text-anchor="middle" fill="#000">18</text>
    <circle cx="50.24" cy="5.00" r="2" fill="#00cc00" opacity="0.7"/>
    <text x="50.24" y="2.00" font-family="monospace" font-size="2.5" text-anchor="middle" fill="#000">19</text>
    <circle cx="31.19" cy="5.00" r="2" fill="#00cc00" opacity="0.7"/>
    <text x="69.29" y="2.00" font-family="monospace" font-size="2.5" text-anchor="middle" fill="#000">20</text>
    <rect x="73.48" y="10.24" width="4" height="4" fill="#ff3333" opacity="0.7"/>
    <text x="75.48" y="9.24" font-family="monospace" font-size="2.5" text-anchor="middle" fill="#000">21</text>
    <rect x="38.24" y="10.24" width="4" height="4" fill="#ff3333" opacity="0.7"/>
    <text x="40.24" y="9.24" font-family="monospace" font-size="2.5" text-anchor="middle" fill="#000">22</text>
    <rect x="3.00" y="10.24" width="4" height="4" fill="#ff3333" opacity="0.7"/>
    <text x="5.00" y="9.24" font-family="monospace" font-size="2.5" text-anchor="middle" fill="#000">23</text>
    <rect x="3.00" y="33.10" width="4" height="4" fill="#ff3333" opacity="0.7"/>
    <text x="5.00" y="32.10" font-family="monospace" font-size="2.5" text-anchor="middle" fill="#000">24</text>
    <rect x="7.39" y="64.05" width="4" height="4" fill="#ff3333" opacity="0.7"/>
    <text x="9.39" y="63.05" font-family="monospace" font-size="2.5" text-anchor="middle" fill="#000">25</text>
    <rect x="7.29" y="80.25" width="4" height="4" fill="#ff3333" opacity="0.7"/>
    <text x="9.29" y="79.25" font-family="monospace" font-size="2.5" text-anchor="middle" fill="#000">26</text>
    <rect x="7.41" y="104.05" width="4" height="4" fill="#ff3333" opacity="0.7"/>
    <text x="9.41" y="103.05" font-family="monospace" font-size="2.5" text-anchor="middle" fill="#000">27</text>
    <rect x="38.24" y="104.06" width="4" height="4" fill="#ff3333" opacity="0.7"/>
    <text x="40.24" y="103.06" font-family="monospace" font-size="2.5" text-anchor="middle" fill="#000">28</text>
    <rect x="70.63" y="104.06" width="4" height="4" fill="#ff3333" opacity="0.7"/>
    <text x="72.63" y="103.06" font-family="monospace" font-size="2.5" text-anchor="middle" fill="#000">29</text>
    <rect x="73.48" y="72.15" width="4" height="4" fill="#ff3333" opacity="0.7"/>
    <text x="75.48" y="71.15" font-family="monospace" font-size="2.5" text-anchor="middle" fill="#000">30</text>
    <rect x="73.48" y="53.10" width="4" height="4" fill="#ff3333" opacity="0.7"/>
    <text x="75.48" y="52.10" font-family="monospace" font-size="2.5" text-anchor="middle" fill="#000">31</text>
    <rect x="73.33" y="34.45" width="4" height="4" fill="#ff3333" opacity="0.7"/>
    <text x="75.33" y="33.45" font-family="monospace" font-size="2.5" text-anchor="middle" fill="#000">32</text>
    <circle cx="65.37" cy="28.85" r="2" fill="#3366ff" opacity="0.7"/>
    <text x="65.37" y="25.85" font-family="monospace" font-size="2.5" text-anchor="middle" fill="#000">33</text>
  </g>
</svg>
