<?xml version="1.0" encoding="UTF-8"?>
<svg width="180.48499999999999mm" height="111.05869999999999mm" viewBox="0 0 180.48499999999999 111.05869999999999"
     xmlns="http://www.w3.org/2000/svg" version="1.1">
  <title>RPWK21 Numpad LED Layout - Top View</title>
  <rect width="80.48499999999999" height="111.05869999999999" fill="#f5f5f5"/>
  <rect x="2" y="2" width="76.48499999999999" height="107.05869999999999" fill="none" stroke="#009933" stroke-width="0.5"/>

  <g id="legend" transform="translate(110, 10)">
    <circle cx="2" cy="2" r="2" fill="#00cc00" opacity="0.7"/>
    <text x="6" y="4" font-family="Arial" font-size="3" fill="#333">Per-key LED</text>
    <rect x="0" y="6" width="4" height="4" fill="#ff3333" opacity="0.7"/>
    <text x="6" y="9.5" font-family="Arial" font-size="3" fill="#333">Underglow LED</text>
    <circle cx="2" cy="13" r="2" fill="#3366ff" opacity="0.7"/>
    <text x="6" y="15" font-family="Arial" font-size="3" fill="#333">Status LED</text>
    <rect x="0" y="17" width="4" height="4" fill="none" stroke="#999999" stroke-width="0.3"/>
    <text x="6" y="20.5" font-family="Arial" font-size="3" fill="#333">Key outline</text>
  </g>

  <text x="40.24249999999999" y="108.05869999999999" font-family="Arial" font-size="3" text-anchor="middle" fill="#666">
    Top View | LED Chain: 0→33 | 21 keys + 12 underglow + 1 status
  </text>

  <!-- Key outlines -->
  <g id="key-outlines">
    <rect x="58.82" y="33.57" width="19.05" height="38.10" fill="none" stroke="#999999" stroke-width="0.3" opacity="0.5"/>
    <text x="68.34" y="52.62" font-family="Arial" font-size="2.5" text-anchor="middle" fill="#666">Plus</text>
    <rect x="58.82" y="71.67" width="19.05" height="38.10" fill="none" stroke="#999999" stroke-width="0.3" opacity="0.5"/>
    <text x="68.34" y="90.72" font-family="Arial" font-size="2.5" text-anchor="middle" fill="#666">Enter</text>
    <rect x="39.77" y="90.72" width="19.05" height="19.05" fill="none" stroke="#999999" stroke-width="0.3" opacity="0.5"/>
    <text x="49.29" y="100.25" font-family="Arial" font-size="2.5" text-anchor="middle" fill="#666">Dot</text>
    <rect x="39.77" y="71.68" width="19.05" height="19.05" fill="none" stroke="#999999" stroke-width="0.3" opacity="0.5"/>
    <text x="49.29" y="81.20" font-family="Arial" font-size="2.5" text-anchor="middle" fill="#666">3</text>
    <rect x="20.72" y="71.68" width="19.05" height="19.05" fill="none" stroke="#999999" stroke-width="0.3" opacity="0.5"/>
    <text x="30.24" y="81.20" font-family="Arial" font-size="2.5" text-anchor="middle" fill="#666">2</text>
    <rect x="1.67" y="90.72" width="38.10" height="19.05" fill="none" stroke="#999999" stroke-width="0.3" opacity="0.5"/>
    <text x="20.72" y="100.25" font-family="Arial" font-size="2.5" text-anchor="middle" fill="#666">0</text>
    <rect x="1.67" y="71.68" width="19.05" height="19.05" fill="none" stroke="#999999" stroke-width="0.3" opacity="0.5"/>
    <text x="11.19" y="81.20" font-family="Arial" font-size="2.5" text-anchor="middle" fill="#666">1</text>
    <rect x="39.77" y="52.63" width="19.05" height="19.05" fill="none" stroke="#999999" stroke-width="0.3" opacity="0.5"/>
    <text x="11.19" y="62.15" font-family="Arial" font-size="2.5" text-anchor="middle" fill="#666">4</text>
    <rect x="20.72" y="52.63" width="19.05" height="19.05" fill="none" stroke="#999999" stroke-width="0.3" opacity="0.5"/>
    <text x="30.24" y="62.15" font-family="Arial" font-size="2.5" text-anchor="middle" fill="#666">5</text>
    <rect x="1.67" y="52.63" width="19.05" height="19.05" fill="none" stroke="#999999" stroke-width="0.3" opacity="0.5"/>
    <text x="49.29" y="62.15" font-family="Arial" font-size="2.5" text-anchor="middle" fill="#666">6</text>
    <rect x="39.77" y="33.57" width="19.05" height="19.05" fill="none" stroke="#999999" stroke-width="0.3" opacity="0.5"/>
    <text x="49.29" y="43.10" font-family="Arial" font-size="2.5" text-anchor="middle" fill="#666">9</text>
    <rect x="20.72" y="33.57" width="19.05" height="19.05" fill="none" stroke="#999999" stroke-width="0.3" opacity="0.5"/>
    <text x="30.24" y="43.10" font-family="Arial" font-size="2.5" text-anchor="middle" fill="#666">8</text>
    <rect x="1.67" y="33.57" width="19.05" height="19.05" fill="none" stroke="#999999" stroke-width="0.3" opacity="0.5"/>
    <text x="11.19" y="43.10" font-family="Arial" font-size="2.5" text-anchor="middle" fill="#666">7</text>
    <rect x="1.67" y="-9.29" width="19.05" height="19.05" fill="none" stroke="#999999" stroke-width="0.3" opacity="0.5"/>
    <text x="11.19" y="0.24" font-family="Arial" font-size="2.5" text-anchor="middle" fill="#666">M1</text>
    <rect x="1.67" y="14.56" width="19.05" height="19.05" fill="none" stroke="#999999" stroke-width="0.3" opacity="0.5"/>
    <text x="11.19" y="24.08" font-family="Arial" font-size="2.5" text-anchor="middle" fill="#666">NumLock</text>
    <rect x="58.82" y="-9.29" width="19.05" height="19.05" fill="none" stroke="#999999" stroke-width="0.3" opacity="0.5"/>
    <text x="68.34" y="0.24" font-family="Arial" font-size="2.5" text-anchor="middle" fill="#666">M4</text>
    <rect x="58.82" y="14.52" width="19.05" height="19.05" fill="none" stroke="#999999" stroke-width="0.3" opacity="0.5"/>
    <text x="68.34" y="24.05" font-family="Arial" font-size="2.5" text-anchor="middle" fill="#666">Minus</text>
    <rect x="39.77" y="14.52" width="19.05" height="19.05" fill="none" stroke="#999999" stroke-width="0.3" opacity="0.5"/>
    <text x="49.29" y="24.05" font-family="Arial" font-size="2.5" text-anchor="middle" fill="#666">Asterisk</text>
    <rect x="20.72" y="14.52" width="19.05" height="19.05" fill="none" stroke="#999999" stroke-width="0.3" opacity="0.5"/>
    <text x="30.24" y="24.05" font-family="Arial" font-size="2.5" text-anchor="middle" fill="#666">Slash</text>
    <rect x="20.72" y="-9.29" width="19.05" height="19.05" fill="none" stroke="#999999" stroke-width="0.3" opacity="0.5"/>
    <text x="30.24" y="0.24" font-family="Arial" font-size="2.5" text-anchor="middle" fill="#666">M2</text>
    <rect x="39.77" y="-9.29" width="19.05" height="19.05" fill="none" stroke="#999999" stroke-width="0.3" opacity="0.5"/>
    <text x="49.29" y="0.24" font-family="Arial" font-size="2.5" text-anchor="middle" fill="#666">M3</text>
  </g>

  <!-- LEDs -->
  <g id="leds">
    <circle cx="73.10" cy="52.63" r="2" fill="#00cc00" opacity="0.7"/>
    <text x="73.10" y="49.63" font-family="monospace" font-size="2.5" text-anchor="middle" fill="#000">0</text>
    <text x="73.10" y="57.63" font-family="monospace" font-size="1.8" text-anchor="middle" fill="#0066cc">LED1</text>
    <circle cx="73.10" cy="90.72" r="2" fill="#00cc00" opacity="0.7"/>
    <text x="73.10" y="87.72" font-family="monospace" font-size="2.5" text-anchor="middle" fill="#000">1</text>
    <text x="73.10" y="95.72" font-family="monospace" font-size="1.8" text-anchor="middle" fill="#0066cc">LED2</text>
    <circle cx="49.29" cy="105.01" r="2" fill="#00cc00" opacity="0.7"/>
    <text x="49.29" y="102.01" font-family="monospace" font-size="2.5" text-anchor="middle" fill="#000">2</text>
    <text x="49.29" y="110.01" font-family="monospace" font-size="1.8" text-anchor="middle" fill="#0066cc">LED3</text>
    <circle cx="49.29" cy="85.96" r="2" fill="#00cc00" opacity="0.7"/>
    <text x="49.29" y="82.96" font-family="monospace" font-size="2.5" text-anchor="middle" fill="#000">3</text>
    <text x="49.29" y="90.96" font-family="monospace" font-size="1.8" text-anchor="middle" fill="#0066cc">LED4</text>
    <circle cx="30.24" cy="85.96" r="2" fill="#00cc00" opacity="0.7"/>
    <text x="30.24" y="82.96" font-family="monospace" font-size="2.5" text-anchor="middle" fill="#000">4</text>
    <text x="30.24" y="90.96" font-family="monospace" font-size="1.8" text-anchor="middle" fill="#0066cc">LED5</text>
    <circle cx="20.72" cy="105.01" r="2" fill="#00cc00" opacity="0.7"/>
    <text x="20.72" y="102.01" font-family="monospace" font-size="2.5" text-anchor="middle" fill="#000">5</text>
    <text x="20.72" y="110.01" font-family="monospace" font-size="1.8" text-anchor="middle" fill="#0066cc">LED6</text>
    <circle cx="11.19" cy="85.96" r="2" fill="#00cc00" opacity="0.7"/>
    <text x="11.19" y="82.96" font-family="monospace" font-size="2.5" text-anchor="middle" fill="#000">6</text>
    <text x="11.19" y="90.96" font-family="monospace" font-size="1.8" text-anchor="middle" fill="#0066cc">LED7</text>
    <circle cx="49.29" cy="66.91" r="2" fill="#00cc00" opacity="0.7"/>
    <text x="11.19" y="63.91" font-family="monospace" font-size="2.5" text-anchor="middle" fill="#000">7</text>
    <text x="11.19" y="71.91" font-family="monospace" font-size="1.8" text-anchor="middle" fill="#0066cc">LED8</text>
    <circle cx="30.24" cy="66.91" r="2" fill="#00cc00" opacity="0.7"/>
    <text x="30.24" y="63.91" font-family="monospace" font-size="2.5" text-anchor="middle" fill="#000">8</text>
    <text x="30.24" y="71.91" font-family="monospace" font-size="1.8" text-anchor="middle" fill="#0066cc">LED9</text>
    <circle cx="11.19" cy="66.91" r="2" fill="#00cc00" opacity="0.7"/>
    <text x="49.29" y="63.91" font-family="monospace" font-size="2.5" text-anchor="middle" fill="#000">9</text>
    <text x="49.29" y="71.91" font-family="monospace" font-size="1.8" text-anchor="middle" fill="#0066cc">LED10</text>
    <circle cx="49.29" cy="47.86" r="2" fill="#00cc00" opacity="0.7"/>
    <text x="49.29" y="44.86" font-family="monospace" font-size="2.5" text-anchor="middle" fill="#000">10</text>
    <text x="49.29" y="52.86" font-family="monospace" font-size="1.8" text-anchor="middle" fill="#0066cc">LED11</text>
    <circle cx="30.24" cy="47.86" r="2" fill="#00cc00" opacity="0.7"/>
    <text x="30.24" y="44.86" font-family="monospace" font-size="2.5" text-anchor="middle" fill="#000">11</text>
    <text x="30.24" y="52.86" font-family="monospace" font-size="1.8" text-anchor="middle" fill="#0066cc">LED12</text>
    <circle cx="11.19" cy="47.86" r="2" fill="#00cc00" opacity="0.7"/>
    <text x="11.19" y="44.86" font-family="monospace" font-size="2.5" text-anchor="middle" fill="#000">12</text>
    <text x="11.19" y="52.86" font-family="monospace" font-size="1.8" text-anchor="middle" fill="#0066cc">LED13</text>
    <circle cx="11.19" cy="5.00" r="2" fill="#00cc00" opacity="0.7"/>
    <text x="11.19" y="2.00" font-family="monospace" font-size="2.5" text-anchor="middle" fill="#000">20</text>
    <text x="11.19" y="10.00" font-family="monospace" font-size="1.8" text-anchor="middle" fill="#0066cc">LED21</text>
    <circle cx="7.49" cy="28.85" r="2" fill="#00cc00" opacity="0.7"/>
    <text x="7.49" y="25.85" font-family="monospace" font-size="2.5" text-anchor="middle" fill="#000">13</text>
    <text x="11.19" y="33.85" font-family="monospace" font-size="1.8" text-anchor="middle" fill="#0066cc">LED14</text>
    <circle cx="68.34" cy="5.00" r="2" fill="#00cc00" opacity="0.7"/>
    <text x="68.34" y="2.00" font-family="monospace" font-size="2.5" text-anchor="middle" fill="#000">17</text>
    <text x="68.34" y="10.00" font-family="monospace" font-size="1.8" text-anchor="middle" fill="#0066cc">LED18</text>
    <circle cx="68.34" cy="28.81" r="2" fill="#00cc00" opacity="0.7"/>
    <text x="68.34" y="25.81" font-family="monospace" font-size="2.5" text-anchor="middle" fill="#000">16</text>
    <text x="68.34" y="33.81" font-family="monospace" font-size="1.8" text-anchor="middle" fill="#0066cc">LED17</text>
    <circle cx="49.29" cy="28.81" r="2" fill="#00cc00" opacity="0.7"/>
    <text x="49.29" y="25.81" font-family="monospace" font-size="2.5" text-anchor="middle" fill="#000">15</text>
    <text x="49.29" y="33.81" font-family="monospace" font-size="1.8" text-anchor="middle" fill="#0066cc">LED16</text>
    <circle cx="30.24" cy="28.81" r="2" fill="#00cc00" opacity="0.7"/>
    <text x="30.24" y="25.81" font-family="monospace" font-size="2.5" text-anchor="middle" fill="#000">14</text>
    <text x="30.24" y="33.81" font-family="monospace" font-size="1.8" text-anchor="middle" fill="#0066cc">LED15</text>
    <circle cx="30.24" cy="5.00" r="2" fill="#00cc00" opacity="0.7"/>
    <text x="30.24" y="2.00" font-family="monospace" font-size="2.5" text-anchor="middle" fill="#000">19</text>
    <text x="30.24" y="10.00" font-family="monospace" font-size="1.8" text-anchor="middle" fill="#0066cc">LED20</text>
    <circle cx="49.29" cy="5.00" r="2" fill="#00cc00" opacity="0.7"/>
    <text x="49.29" y="2.00" font-family="monospace" font-size="2.5" text-anchor="middle" fill="#000">18</text>
    <text x="49.29" y="10.00" font-family="monospace" font-size="1.8" text-anchor="middle" fill="#0066cc">LED19</text>
    <rect x="3.00" y="10.24" width="4" height="4" fill="#ff3333" opacity="0.7"/>
    <text x="5.00" y="9.24" font-family="monospace" font-size="2.5" text-anchor="middle" fill="#000">21</text>
    <rect x="38.24" y="10.24" width="4" height="4" fill="#ff3333" opacity="0.7"/>
    <text x="40.24" y="9.24" font-family="monospace" font-size="2.5" text-anchor="middle" fill="#000">22</text>
    <rect x="73.48" y="10.24" width="4" height="4" fill="#ff3333" opacity="0.7"/>
    <text x="75.48" y="9.24" font-family="monospace" font-size="2.5" text-anchor="middle" fill="#000">23</text>
    <rect x="73.48" y="33.10" width="4" height="4" fill="#ff3333" opacity="0.7"/>
    <text x="75.48" y="32.10" font-family="monospace" font-size="2.5" text-anchor="middle" fill="#000">24</text>
    <rect x="69.09" y="64.05" width="4" height="4" fill="#ff3333" opacity="0.7"/>
    <text x="71.09" y="63.05" font-family="monospace" font-size="2.5" text-anchor="middle" fill="#000">25</text>
    <rect x="69.20" y="80.25" width="4" height="4" fill="#ff3333" opacity="0.7"/>
    <text x="71.20" y="79.25" font-family="monospace" font-size="2.5" text-anchor="middle" fill="#000">26</text>
    <rect x="69.07" y="104.05" width="4" height="4" fill="#ff3333" opacity="0.7"/>
    <text x="71.07" y="103.05" font-family="monospace" font-size="2.5" text-anchor="middle" fill="#000">27</text>
    <rect x="38.24" y="104.06" width="4" height="4" fill="#ff3333" opacity="0.7"/>
    <text x="40.24" y="103.06" font-family="monospace" font-size="2.5" text-anchor="middle" fill="#000">28</text>
    <rect x="5.86" y="104.06" width="4" height="4" fill="#ff3333" opacity="0.7"/>
    <text x="7.86" y="103.06" font-family="monospace" font-size="2.5" text-anchor="middle" fill="#000">29</text>
    <rect x="3.00" y="72.15" width="4" height="4" fill="#ff3333" opacity="0.7"/>
    <text x="5.00" y="71.15" font-family="monospace" font-size="2.5" text-anchor="middle" fill="#000">30</text>
    <rect x="3.00" y="53.10" width="4" height="4" fill="#ff3333" opacity="0.7"/>
    <text x="5.00" y="52.10" font-family="monospace" font-size="2.5" text-anchor="middle" fill="#000">31</text>
    <rect x="3.16" y="34.45" width="4" height="4" fill="#ff3333" opacity="0.7"/>
    <text x="5.16" y="33.45" font-family="monospace" font-size="2.5" text-anchor="middle" fill="#000">32</text>
    <circle cx="15.11" cy="28.85" r="2" fill="#3366ff" opacity="0.7"/>
    <text x="15.11" y="25.85" font-family="monospace" font-size="2.5" text-anchor="middle" fill="#000">33</text>
  </g>
</svg>
